<svg width="31" height="11" viewBox="0 0 31 11" fill="none" xmlns="http://www.w3.org/2000/svg">
<path d="M7.54102 3.73828L7.19531 3.9668C6.98438 3.6543 6.70898 3.4082 6.36914 3.22852C6.0332 3.04492 5.66797 2.95312 5.27344 2.95312C4.63281 2.95312 4.08594 3.17969 3.63281 3.63281C3.17969 4.08594 2.95312 4.63281 2.95312 5.27344C2.95312 5.91406 3.17969 6.46094 3.63281 6.91406C4.08594 7.36719 4.63281 7.59375 5.27344 7.59375C5.66797 7.59375 6.0332 7.50195 6.36914 7.31836C6.70898 7.13477 6.98438 6.88672 7.19531 6.57422L7.53516 6.82031C7.28516 7.1875 6.96094 7.47852 6.5625 7.69336C6.16406 7.9082 5.73438 8.01562 5.27344 8.01562C4.90234 8.01562 4.54688 7.94336 4.20703 7.79883C3.87109 7.6543 3.58008 7.45898 3.33398 7.21289C3.08789 6.9668 2.89258 6.67578 2.74805 6.33984C2.60352 6 2.53125 5.64453 2.53125 5.27344C2.53125 4.90234 2.60352 4.54883 2.74805 4.21289C2.89258 3.87305 3.08789 3.58008 3.33398 3.33398C3.58008 3.08789 3.87109 2.89258 4.20703 2.74805C4.54688 2.60352 4.90234 2.53125 5.27344 2.53125C5.73828 2.53125 6.16992 2.64062 6.56836 2.85938C6.9668 3.07422 7.29102 3.36719 7.54102 3.73828ZM8.23828 3.25781L7.88672 3.48633C7.59766 3.06445 7.22266 2.73047 6.76172 2.48438C6.30469 2.23438 5.80859 2.10938 5.27344 2.10938C4.69922 2.10938 4.16992 2.25195 3.68555 2.53711C3.20117 2.81836 2.81641 3.20117 2.53125 3.68555C2.25 4.16992 2.10938 4.69922 2.10938 5.27344C2.10938 5.84766 2.25 6.37695 2.53125 6.86133C2.81641 7.3457 3.20117 7.73047 3.68555 8.01562C4.16992 8.29688 4.69922 8.4375 5.27344 8.4375C5.80859 8.4375 6.30664 8.3125 6.76758 8.0625C7.22852 7.8125 7.60352 7.47461 7.89258 7.04883L8.23828 7.28906C7.91016 7.77344 7.48438 8.15625 6.96094 8.4375C6.44141 8.71875 5.87891 8.85938 5.27344 8.85938C4.625 8.85938 4.02539 8.69922 3.47461 8.37891C2.92383 8.05859 2.48828 7.62305 2.16797 7.07227C1.84766 6.52148 1.6875 5.92188 1.6875 5.27344C1.6875 4.625 1.84766 4.02539 2.16797 3.47461C2.48828 2.92383 2.92383 2.48828 3.47461 2.16797C4.02539 1.84766 4.625 1.6875 5.27344 1.6875C5.87891 1.6875 6.44141 1.82812 6.96094 2.10938C7.48438 2.39062 7.91016 2.77344 8.23828 3.25781ZM8.94141 2.78906L8.58984 3.01758C8.22266 2.47852 7.74609 2.05273 7.16016 1.74023C6.57812 1.42383 5.94922 1.26562 5.27344 1.26562C4.73047 1.26562 4.21094 1.37109 3.71484 1.58203C3.21875 1.79297 2.79102 2.07812 2.43164 2.4375C2.07617 2.79297 1.79297 3.21875 1.58203 3.71484C1.37109 4.21094 1.26562 4.73047 1.26562 5.27344C1.26562 5.81641 1.37109 6.33594 1.58203 6.83203C1.79297 7.32812 2.07617 7.75586 2.43164 8.11523C2.79102 8.4707 3.21875 8.75391 3.71484 8.96484C4.21094 9.17578 4.73047 9.28125 5.27344 9.28125C5.95312 9.28125 6.58398 9.12305 7.16602 8.80664C7.74805 8.49023 8.22266 8.0625 8.58984 7.52344L8.92969 7.77539C8.52344 8.36914 7.99805 8.83984 7.35352 9.1875C6.71289 9.53125 6.01953 9.70312 5.27344 9.70312C4.47266 9.70312 3.73242 9.50586 3.05273 9.11133C2.37305 8.71289 1.83398 8.17383 1.43555 7.49414C1.04102 6.81445 0.84375 6.07422 0.84375 5.27344C0.84375 4.47266 1.04102 3.73242 1.43555 3.05273C1.83398 2.37305 2.37305 1.83594 3.05273 1.44141C3.73242 1.04297 4.47266 0.84375 5.27344 0.84375C6.02344 0.84375 6.7207 1.01953 7.36523 1.37109C8.00977 1.71875 8.53516 2.19141 8.94141 2.78906ZM9.63281 2.30859L9.28125 2.53711C8.83594 1.88477 8.25977 1.36914 7.55273 0.990234C6.84961 0.611328 6.08984 0.421875 5.27344 0.421875C4.61719 0.421875 3.98828 0.550781 3.38672 0.808594C2.78906 1.0625 2.27344 1.40625 1.83984 1.83984C1.40625 2.27344 1.06055 2.79102 0.802734 3.39258C0.548828 3.99023 0.421875 4.61719 0.421875 5.27344C0.421875 5.92969 0.548828 6.55859 0.802734 7.16016C1.06055 7.75781 1.40625 8.27344 1.83984 8.70703C2.27344 9.14062 2.78906 9.48633 3.38672 9.74414C3.98828 9.99805 4.61719 10.125 5.27344 10.125C6.08984 10.125 6.85156 9.93359 7.55859 9.55078C8.26562 9.16797 8.8418 8.65039 9.28711 7.99805L9.62695 8.25586C9.14258 8.95898 8.51758 9.51758 7.75195 9.93164C6.98633 10.3418 6.16016 10.5469 5.27344 10.5469C4.55859 10.5469 3.875 10.4062 3.22266 10.125C2.57422 9.84766 2.01367 9.47461 1.54102 9.00586C1.07227 8.5332 0.697266 7.97266 0.416016 7.32422C0.138672 6.67188 0 5.98828 0 5.27344C0 4.55859 0.138672 3.87695 0.416016 3.22852C0.697266 2.57617 1.07227 2.01562 1.54102 1.54688C2.01367 1.07422 2.57422 0.699219 3.22266 0.421875C3.875 0.140625 4.55859 0 5.27344 0C6.16406 0 6.99219 0.207031 7.75781 0.621094C8.52344 1.03516 9.14844 1.59766 9.63281 2.30859ZM13.4004 10.125H12.7207C12.502 10.125 12.2676 10.0879 12.0176 10.0137C11.7715 9.93945 11.541 9.81836 11.3262 9.65039C11.1113 9.47852 10.9336 9.25781 10.793 8.98828C10.6523 8.71484 10.582 8.38086 10.582 7.98633V1.11328H12.1055V7.98633C12.1055 8.17383 12.1641 8.32422 12.2812 8.4375C12.3984 8.54688 12.5449 8.60156 12.7207 8.60156H13.4004V10.125ZM21.2109 9.35742C21.2109 9.4668 21.1914 9.56836 21.1523 9.66211C21.1133 9.75586 21.0586 9.83789 20.9883 9.9082C20.9219 9.97461 20.8418 10.0273 20.748 10.0664C20.6582 10.1055 20.5605 10.125 20.4551 10.125H17.0098C16.8223 10.125 16.6211 10.1035 16.4062 10.0605C16.1953 10.0176 15.9863 9.94922 15.7793 9.85547C15.5723 9.75781 15.3711 9.63672 15.1758 9.49219C14.9844 9.34375 14.8164 9.16602 14.6719 8.95898C14.5273 8.74805 14.4102 8.50586 14.3203 8.23242C14.2344 7.95898 14.1914 7.65039 14.1914 7.30664V3.79102H15.7148V7.30664C15.7148 7.50586 15.748 7.68555 15.8145 7.8457C15.8848 8.00195 15.9785 8.13672 16.0957 8.25C16.2129 8.36328 16.3496 8.45117 16.5059 8.51367C16.666 8.57227 16.8379 8.60156 17.0215 8.60156H19.6875V3.79102H21.2109V9.35742ZM29.0801 5.85938C29.0762 5.85938 29.0742 5.86133 29.0742 5.86523C29.2617 6.05664 29.418 6.29297 29.543 6.57422C29.668 6.85547 29.7305 7.14062 29.7305 7.42969C29.7305 8.05859 29.5137 8.58789 29.0801 9.01758C28.6504 9.44336 28.1348 9.65625 27.5332 9.65625H24.8672V10.0781H27.5332C28.0098 10.0781 28.4434 9.97461 28.834 9.76758C29.2285 9.56055 29.5469 9.25391 29.7891 8.84766C30.0312 8.4375 30.1523 7.96484 30.1523 7.42969C30.1523 6.87109 29.9844 6.35938 29.6484 5.89453C29.9844 5.44531 30.1523 4.9082 30.1523 4.2832C30.1523 3.82617 30.0332 3.39844 29.7949 3C29.5566 2.59766 29.2344 2.2793 28.8281 2.04492C28.4258 1.80664 27.9941 1.6875 27.5332 1.6875H22.4707V10.125H22.8926V2.10938H27.5332C28.127 2.10938 28.6406 2.32617 29.0742 2.75977C29.5117 3.18945 29.7305 3.69727 29.7305 4.2832C29.7305 4.90039 29.5098 5.42383 29.0684 5.85352L29.0801 5.85938ZM27.5332 7.96875C27.6777 7.96875 27.7988 7.92188 27.8965 7.82812C27.9941 7.73438 28.043 7.60156 28.043 7.42969C28.043 7.28906 27.9902 7.16406 27.8848 7.05469C27.7832 6.94531 27.666 6.89062 27.5332 6.89062H24.8613V6.46875H27.5332C27.7793 6.46875 27.9961 6.56641 28.1836 6.76172C28.3711 6.95312 28.4648 7.17578 28.4648 7.42969C28.4648 7.72266 28.373 7.95703 28.1895 8.13281C28.0098 8.30469 27.791 8.39062 27.5332 8.39062H24.8672V7.96875H27.5332ZM27.5332 8.8125C27.9043 8.8125 28.2227 8.68359 28.4883 8.42578C28.7539 8.16797 28.8867 7.83594 28.8867 7.42969C28.8867 7.0625 28.75 6.74023 28.4766 6.46289C28.207 6.18555 27.8926 6.04688 27.5332 6.04688H26.2441H24.8672V5.625H26.2441H27.5332C27.9043 5.625 28.2227 5.5 28.4883 5.25C28.7539 4.99609 28.8867 4.67383 28.8867 4.2832C28.8867 3.93164 28.75 3.62305 28.4766 3.35742C28.207 3.08789 27.8926 2.95312 27.5332 2.95312H23.7363V10.125H23.3145V2.53125H27.5332C28.0098 2.53125 28.4238 2.70703 28.7754 3.05859C29.1309 3.40625 29.3086 3.81445 29.3086 4.2832C29.3086 4.62695 29.2207 4.9375 29.0449 5.21484C28.873 5.48828 28.6445 5.69922 28.3594 5.84766C28.6445 6.00391 28.873 6.22656 29.0449 6.51562C29.2207 6.80078 29.3086 7.10547 29.3086 7.42969C29.3086 7.94141 29.1328 8.37109 28.7812 8.71875C28.4336 9.0625 28.0176 9.23438 27.5332 9.23438H24.8672V8.8125H27.5332ZM27.5332 4.78125C27.6777 4.78125 27.7988 4.73828 27.8965 4.65234C27.9941 4.56641 28.043 4.44336 28.043 4.2832C28.043 4.1582 27.9902 4.04688 27.8848 3.94922C27.7832 3.84766 27.666 3.79688 27.5332 3.79688H24.5801V10.125H24.1582V3.375H27.5332C27.7793 3.375 27.9961 3.4668 28.1836 3.65039C28.3711 3.83398 28.4648 4.04492 28.4648 4.2832C28.4648 4.56445 28.375 4.78906 28.1953 4.95703C28.0156 5.12109 27.7949 5.20312 27.5332 5.20312H24.8672V4.78125H27.5332Z" fill="white"/>
</svg>
