<svg width="19" height="10" viewBox="0 0 19 10" fill="none" xmlns="http://www.w3.org/2000/svg">
<path d="M2.53125 0H2.95312V9.70312H2.53125V0ZM1.6875 0H2.10938V9.70312H1.6875V0ZM0.84375 0H1.26562V9.70312H0.84375V0ZM0 0H0.421875V9.70312H0V0ZM4.79348 9.57112L4.24148 8.95912L4.78148 2.19112L5.29748 1.68712L10.6015 1.14712L11.2375 1.69912L11.4895 9.06712L10.9135 9.64312L4.79348 9.57112ZM10.3495 8.50312L10.1215 2.32312L5.86148 2.76712L5.42948 8.44312L10.3495 8.50312ZM12.5625 0.421875V0H18.8906V0.421875H12.5625ZM12.5625 1.26562V0.84375H18.8906V1.26562H12.5625ZM12.5625 2.10938V1.6875H18.8906V2.10938H17.2031V9.70312H16.7812V2.10938H16.3594V9.70312H15.9375V2.10938H15.5156V9.70312H15.0938V2.10938H14.6719V9.70312H14.25V2.10938H12.5625Z" fill="white"/>
</svg>
